<svg version="1.1" width="71" height="62" viewBox="-1 -1 71 62" xmlns="http://www.w3.org/2000/svg" xmlns:xlink="http://www.w3.org/1999/xlink">
  <!-- Exported by Scratch - http://scratch.mit.edu/ -->
  <g id="ID0.7140398160554469" transform="matrix(0.3749796748161316, 0, 0, 0.3749796748161316, -0.75, -2.15)">
    <g id="g1">
      <path id="polygon1" fill="#E5E5E5" stroke="#7F7F7F" stroke-width="5" stroke-linejoin="round" d="M 39.389 13.769 L 22.235 28.606 L 6 28.606 L 6 47.699 L 21.989 47.699 L 39.389 62.750 L 39.389 13.769 L 39.389 13.769 "/>
      <path id="path1" fill="none" stroke="#7F7F7F" stroke-width="5" stroke-linecap="round" d="M 48.128 49.030 C 50.057 45.934 51.190 42.291 51.190 38.377 C 51.190 34.399 50.026 30.703 48.043 27.577 "/>
      <path id="path2" fill="none" stroke="#7F7F7F" stroke-width="5" stroke-linecap="round" d="M 55.082 20.537 C 58.777 25.523 60.966 31.694 60.966 38.377 C 60.966 44.998 58.815 51.115 55.178 56.076 "/>
      <path id="path1" fill="none" stroke="#7F7F7F" stroke-width="5" stroke-linecap="round" d="M 61.710 62.611 C 66.977 55.945 70.128 47.531 70.128 38.378 C 70.128 29.161 66.936 20.696 61.609 14.010 "/>
    </g>
  </g>
</svg>