<svg version="1.1" width="32" height="40" viewBox="-1 -1 32 40" xmlns="http://www.w3.org/2000/svg" xmlns:xlink="http://www.w3.org/1999/xlink">
  <!-- Exported by Scratch - http://scratch.mit.edu/ -->
  <path id="path8830" fill="#000000" stroke="#000000" stroke-width="0.26458332" d="M 95.461 70.807 L 95.461 76.091 C 93.775 74.520 91.972 73.346 90.054 72.568 C 88.152 71.791 86.127 71.403 83.977 71.403 C 79.744 71.403 76.502 72.701 74.253 75.297 C 72.004 77.877 70.880 81.614 70.880 86.509 C 70.880 91.387 72.004 95.124 74.253 97.720 C 76.502 100.300 79.744 101.590 83.977 101.590 C 86.127 101.590 88.152 101.201 90.054 100.424 C 91.972 99.647 93.775 98.473 95.461 96.902 L 95.461 102.136 C 93.709 103.326 91.848 104.219 89.880 104.814 C 87.929 105.410 85.862 105.707 83.679 105.707 C 78.073 105.707 73.658 103.996 70.433 100.573 C 67.209 97.133 65.597 92.445 65.597 86.509 C 65.597 80.555 67.209 75.867 70.433 72.444 C 73.658 69.005 78.073 67.285 83.679 67.285 C 85.895 67.285 87.979 67.583 89.930 68.178 C 91.898 68.757 93.742 69.633 95.461 70.807 Z " transform="matrix(1, 0, 0, 1, -65, -67)"/>
</svg>