<svg version="1.1" width="36" height="40" viewBox="-1 -1 36 40" xmlns="http://www.w3.org/2000/svg" xmlns:xlink="http://www.w3.org/1999/xlink">
  <!-- Exported by Scratch - http://scratch.mit.edu/ -->
  <path id="path3778" fill="#000000" stroke="#000000" stroke-width="0.26458332" d="M 82.761 71.353 C 79.123 71.353 76.230 72.709 74.080 75.421 C 71.947 78.133 70.880 81.829 70.880 86.509 C 70.880 91.172 71.947 94.860 74.080 97.571 C 76.230 100.283 79.123 101.639 82.761 101.639 C 86.399 101.639 89.277 100.283 91.393 97.571 C 93.527 94.860 94.593 91.172 94.593 86.509 C 94.593 81.829 93.527 78.133 91.393 75.421 C 89.277 72.709 86.399 71.353 82.761 71.353 Z M 82.761 67.285 C 87.954 67.285 92.105 69.030 95.213 72.519 C 98.322 75.991 99.877 80.655 99.877 86.509 C 99.877 92.346 98.322 97.009 95.213 100.498 C 92.105 103.971 87.954 105.707 82.761 105.707 C 77.552 105.707 73.385 103.971 70.260 100.498 C 67.151 97.026 65.597 92.363 65.597 86.509 C 65.597 80.655 67.151 75.991 70.260 72.519 C 73.385 69.030 77.552 67.285 82.761 67.285 Z " transform="matrix(1, 0, 0, 1, -65, -67)"/>
</svg>